PathFileType	4	(X / Y / Z)	Demo_152250_11_September_2019	Demo_152250_11_September_2019.trc
DataRate	CameraRate	NumFrames	NumMarkers	Units	OrigDataRate	OrigDataStartFrame	OrigNumFrames
50	50	19	25	m	50	597	2190
Frame#	Time		SpineBase		SpineMid		Neck		Head		ShoulderLeft		ElbowLeft		WristLeft		HandLeft		ShoulderRight		ElbowRight		WristRight		HandRight		HipLeft		KneeLeft		AnkleLeft		FootLeft		HipRight		KneeRight		AnkleRight		FootRight		SpineShoulder		HandTipLeft		LeftThumb		HandTipRight		ThumbRight		
X1	Y1	Z1	X2	Y2	Z2	X3	Y3	Z3	X4	Y4	Z4	X5	Y5	Z5	X6	Y6	Z6	X7	Y7	Z7	X8	Y8	Z8	X9	Y9	Z9	X10	Y10	Z10	X11	Y11	Z11	X12	Y12	Z12	X13	Y13	Z13	X14	Y14	Z14	X15	Y15	Z15	X16	Y16	Z16	X17	Y17	Z17	X18	Y18	Z18	X19	Y19	Z19	X20	Y20	Z20	X21	Y21	Z21	X22	Y22	Z22	X23	Y23	Z23	X24	Y24	Z24	X25	Y25	Z25	
548	34.987	0.204	0.771	1.767	0.199	1.059	1.720	0.193	1.337	1.661	0.206	1.482	1.646	0.031	1.252	1.636	0.033	1.110	1.511	0.111	1.271	1.474	0.112	1.284	1.492	0.366	1.241	1.665	0.558	1.201	1.638	0.770	1.222	1.558	0.828	1.240	1.539	0.124	0.778	1.727	0.061	0.479	1.765	0.071	0.179	1.832	0.065	0.157	1.731	0.276	0.773	1.742	0.303	0.494	1.854	0.303	0.263	1.999	0.312	0.203	1.903	0.195	1.269	1.678	0.150	1.356	1.495	0.122	1.271	1.518	0.889	1.242	1.529	0.821	1.249	1.496
549	35.003	0.204	0.771	1.767	0.199	1.059	1.720	0.193	1.337	1.661	0.206	1.482	1.646	0.031	1.252	1.636	0.033	1.110	1.511	0.111	1.271	1.474	0.112	1.284	1.492	0.366	1.241	1.665	0.558	1.201	1.638	0.770	1.222	1.558	0.828	1.240	1.539	0.124	0.778	1.727	0.061	0.479	1.765	0.071	0.179	1.832	0.065	0.157	1.731	0.276	0.773	1.742	0.303	0.494	1.854	0.303	0.263	1.999	0.312	0.203	1.903	0.195	1.269	1.678	0.150	1.356	1.495	0.122	1.271	1.518	0.889	1.242	1.529	0.821	1.249	1.496
550	35.020	0.188	0.767	1.757	0.182	1.056	1.709	0.175	1.336	1.649	0.184	1.482	1.632	0.017	1.248	1.619	0.015	1.106	1.493	0.099	1.265	1.465	0.091	1.276	1.476	0.343	1.232	1.656	0.514	1.145	1.641	0.752	1.119	1.573	0.822	1.110	1.554	0.108	0.773	1.716	0.045	0.474	1.756	0.070	0.180	1.832	0.061	0.154	1.737	0.261	0.769	1.732	0.293	0.491	1.844	0.297	0.262	1.989	0.309	0.202	1.894	0.177	1.268	1.667	0.131	1.352	1.479	0.096	1.247	1.479	0.894	1.090	1.560	0.822	1.107	1.513
551	35.037	0.188	0.767	1.757	0.182	1.056	1.709	0.175	1.336	1.649	0.184	1.482	1.632	0.017	1.248	1.619	0.015	1.106	1.493	0.099	1.265	1.465	0.091	1.276	1.476	0.343	1.232	1.656	0.514	1.145	1.641	0.752	1.119	1.573	0.822	1.110	1.554	0.108	0.773	1.716	0.045	0.474	1.756	0.070	0.180	1.832	0.061	0.154	1.737	0.261	0.769	1.732	0.293	0.491	1.844	0.297	0.262	1.989	0.309	0.202	1.894	0.177	1.268	1.667	0.131	1.352	1.479	0.096	1.247	1.479	0.894	1.090	1.560	0.822	1.107	1.513
552	35.053	0.188	0.767	1.757	0.182	1.056	1.709	0.175	1.336	1.649	0.184	1.482	1.632	0.017	1.248	1.619	0.015	1.106	1.493	0.099	1.265	1.465	0.091	1.276	1.476	0.343	1.232	1.656	0.514	1.145	1.641	0.752	1.119	1.573	0.822	1.110	1.554	0.108	0.773	1.716	0.045	0.474	1.756	0.070	0.180	1.832	0.061	0.154	1.737	0.261	0.769	1.732	0.293	0.491	1.844	0.297	0.262	1.989	0.309	0.202	1.894	0.177	1.268	1.667	0.131	1.352	1.479	0.096	1.247	1.479	0.894	1.090	1.560	0.822	1.107	1.513
553	35.070	0.188	0.767	1.757	0.182	1.056	1.709	0.175	1.336	1.649	0.184	1.482	1.632	0.017	1.248	1.619	0.015	1.106	1.493	0.099	1.265	1.465	0.091	1.276	1.476	0.343	1.232	1.656	0.514	1.145	1.641	0.752	1.119	1.573	0.822	1.110	1.554	0.108	0.773	1.716	0.045	0.474	1.756	0.070	0.180	1.832	0.061	0.154	1.737	0.261	0.769	1.732	0.293	0.491	1.844	0.297	0.262	1.989	0.309	0.202	1.894	0.177	1.268	1.667	0.131	1.352	1.479	0.096	1.247	1.479	0.894	1.090	1.560	0.822	1.107	1.513
554	35.087	0.174	0.762	1.748	0.166	1.053	1.700	0.157	1.335	1.639	0.166	1.482	1.622	0.006	1.245	1.606	0.004	1.105	1.478	0.090	1.263	1.458	0.080	1.283	1.468	0.324	1.224	1.648	0.473	1.093	1.642	0.678	1.028	1.597	0.713	1.027	1.595	0.095	0.769	1.707	0.033	0.469	1.750	0.070	0.179	1.832	0.058	0.152	1.742	0.247	0.765	1.723	0.286	0.487	1.831	0.292	0.262	1.980	0.306	0.200	1.886	0.160	1.266	1.657	0.120	1.353	1.474	0.094	1.283	1.495	0.808	0.970	1.586	0.726	0.996	1.554
555	35.103	0.174	0.762	1.748	0.166	1.053	1.700	0.157	1.335	1.639	0.166	1.482	1.622	0.006	1.245	1.606	0.004	1.105	1.478	0.090	1.263	1.458	0.080	1.283	1.468	0.324	1.224	1.648	0.473	1.093	1.642	0.678	1.028	1.597	0.713	1.027	1.595	0.095	0.769	1.707	0.033	0.469	1.750	0.070	0.179	1.832	0.058	0.152	1.742	0.247	0.765	1.723	0.286	0.487	1.831	0.292	0.262	1.980	0.306	0.200	1.886	0.160	1.266	1.657	0.120	1.353	1.474	0.094	1.283	1.495	0.808	0.970	1.586	0.726	0.996	1.554
556	35.120	0.163	0.759	1.741	0.154	1.051	1.693	0.144	1.333	1.632	0.151	1.481	1.613	-0.002	1.242	1.595	-0.005	1.102	1.468	0.079	1.259	1.447	0.068	1.288	1.458	0.307	1.217	1.641	0.419	1.037	1.645	0.622	0.947	1.621	0.678	0.912	1.617	0.084	0.765	1.700	0.024	0.466	1.746	0.069	0.177	1.832	0.056	0.149	1.746	0.235	0.762	1.715	0.284	0.483	1.814	0.288	0.263	1.971	0.303	0.198	1.879	0.146	1.264	1.649	0.110	1.352	1.466	0.067	1.301	1.481	0.743	0.845	1.607	0.692	0.870	1.579
557	35.137	0.163	0.759	1.741	0.154	1.051	1.693	0.144	1.333	1.632	0.151	1.481	1.613	-0.002	1.242	1.595	-0.005	1.102	1.468	0.079	1.259	1.447	0.068	1.288	1.458	0.307	1.217	1.641	0.419	1.037	1.645	0.622	0.947	1.621	0.678	0.912	1.617	0.084	0.765	1.700	0.024	0.466	1.746	0.069	0.177	1.832	0.056	0.149	1.746	0.235	0.762	1.715	0.284	0.483	1.814	0.288	0.263	1.971	0.303	0.198	1.879	0.146	1.264	1.649	0.110	1.352	1.466	0.067	1.301	1.481	0.743	0.845	1.607	0.692	0.870	1.579
558	35.154	0.153	0.756	1.733	0.147	1.050	1.688	0.137	1.333	1.628	0.137	1.480	1.604	-0.008	1.240	1.588	-0.010	1.101	1.459	0.047	1.267	1.431	0.058	1.288	1.451	0.298	1.213	1.637	0.370	0.983	1.645	0.555	0.880	1.642	0.606	0.837	1.641	0.075	0.762	1.693	0.014	0.464	1.741	0.064	0.191	1.826	0.058	0.160	1.728	0.225	0.760	1.707	0.273	0.474	1.789	0.283	0.264	1.956	0.300	0.195	1.869	0.140	1.263	1.645	0.093	1.352	1.457	0.047	1.306	1.472	0.659	0.742	1.632	0.628	0.771	1.604
559	35.170	0.153	0.756	1.733	0.147	1.050	1.688	0.137	1.333	1.628	0.137	1.480	1.604	-0.008	1.240	1.588	-0.010	1.101	1.459	0.047	1.267	1.431	0.058	1.288	1.451	0.298	1.213	1.637	0.370	0.983	1.645	0.555	0.880	1.642	0.606	0.837	1.641	0.075	0.762	1.693	0.014	0.464	1.741	0.064	0.191	1.826	0.058	0.160	1.728	0.225	0.760	1.707	0.273	0.474	1.789	0.283	0.264	1.956	0.300	0.195	1.869	0.140	1.263	1.645	0.093	1.352	1.457	0.047	1.306	1.472	0.659	0.742	1.632	0.628	0.771	1.604
560	35.187	0.140	0.753	1.723	0.132	1.047	1.678	0.122	1.331	1.619	0.126	1.479	1.597	-0.014	1.238	1.581	-0.014	1.100	1.452	0.034	1.269	1.425	0.051	1.288	1.445	0.276	1.206	1.624	0.334	0.954	1.645	0.484	0.839	1.655	0.523	0.787	1.657	0.063	0.759	1.684	0.007	0.462	1.738	0.062	0.190	1.824	0.056	0.160	1.733	0.212	0.757	1.696	0.265	0.465	1.756	0.277	0.262	1.940	0.295	0.190	1.858	0.124	1.261	1.636	0.080	1.352	1.452	0.019	1.296	1.457	0.557	0.682	1.657	0.541	0.700	1.629
561	35.204	0.140	0.753	1.723	0.132	1.047	1.678	0.122	1.331	1.619	0.126	1.479	1.597	-0.014	1.238	1.581	-0.014	1.100	1.452	0.034	1.269	1.425	0.051	1.288	1.445	0.276	1.206	1.624	0.334	0.954	1.645	0.484	0.839	1.655	0.523	0.787	1.657	0.063	0.759	1.684	0.007	0.462	1.738	0.062	0.190	1.824	0.056	0.160	1.733	0.212	0.757	1.696	0.265	0.465	1.756	0.277	0.262	1.940	0.295	0.190	1.858	0.124	1.261	1.636	0.080	1.352	1.452	0.019	1.296	1.457	0.557	0.682	1.657	0.541	0.700	1.629
562	35.220	0.130	0.751	1.714	0.122	1.046	1.670	0.112	1.330	1.613	0.116	1.477	1.590	-0.021	1.236	1.575	-0.017	1.100	1.447	0.027	1.269	1.421	0.044	1.287	1.440	0.263	1.203	1.616	0.314	0.943	1.643	0.431	0.779	1.665	0.441	0.702	1.677	0.053	0.757	1.676	0.000	0.461	1.735	0.060	0.188	1.822	0.054	0.160	1.739	0.202	0.755	1.685	0.261	0.462	1.741	0.267	0.250	1.925	0.286	0.180	1.844	0.115	1.260	1.630	0.071	1.352	1.448	0.003	1.287	1.447	0.453	0.618	1.684	0.446	0.662	1.644
563	35.237	0.130	0.751	1.714	0.122	1.046	1.670	0.112	1.330	1.613	0.116	1.477	1.590	-0.021	1.236	1.575	-0.017	1.100	1.447	0.027	1.269	1.421	0.044	1.287	1.440	0.263	1.203	1.616	0.314	0.943	1.643	0.431	0.779	1.665	0.441	0.702	1.677	0.053	0.757	1.676	0.000	0.461	1.735	0.060	0.188	1.822	0.054	0.160	1.739	0.202	0.755	1.685	0.261	0.462	1.741	0.267	0.250	1.925	0.286	0.180	1.844	0.115	1.260	1.630	0.071	1.352	1.448	0.003	1.287	1.447	0.453	0.618	1.684	0.446	0.662	1.644
564	35.254	0.123	0.749	1.706	0.114	1.044	1.664	0.105	1.329	1.609	0.108	1.476	1.584	-0.028	1.235	1.570	-0.041	1.087	1.452	0.018	1.255	1.418	0.039	1.287	1.436	0.252	1.202	1.608	0.291	0.938	1.638	0.323	0.707	1.660	0.324	0.624	1.663	0.046	0.754	1.669	-0.004	0.460	1.733	0.056	0.203	1.816	0.055	0.172	1.719	0.195	0.754	1.676	0.257	0.458	1.723	0.241	0.259	1.879	0.252	0.187	1.790	0.108	1.259	1.625	0.065	1.352	1.445	-0.005	1.286	1.443	0.326	0.545	1.675	0.307	0.575	1.643
565	35.270	0.123	0.749	1.706	0.114	1.044	1.664	0.105	1.329	1.609	0.108	1.476	1.584	-0.028	1.235	1.570	-0.041	1.087	1.452	0.018	1.255	1.418	0.039	1.287	1.436	0.252	1.202	1.608	0.291	0.938	1.638	0.323	0.707	1.660	0.324	0.624	1.663	0.046	0.754	1.669	-0.004	0.460	1.733	0.056	0.203	1.816	0.055	0.172	1.719	0.195	0.754	1.676	0.257	0.458	1.723	0.241	0.259	1.879	0.252	0.187	1.790	0.108	1.259	1.625	0.065	1.352	1.445	-0.005	1.286	1.443	0.326	0.545	1.675	0.307	0.575	1.643
566	35.287	0.116	0.748	1.696	0.108	1.043	1.657	0.100	1.328	1.604	0.101	1.474	1.578	-0.034	1.233	1.567	-0.052	1.081	1.455	0.013	1.246	1.415	0.035	1.286	1.433	0.244	1.201	1.602	0.271	0.940	1.628	0.289	0.725	1.636	0.291	0.649	1.638	0.039	0.752	1.660	-0.009	0.459	1.729	0.056	0.200	1.816	0.051	0.170	1.732	0.189	0.753	1.665	0.248	0.453	1.701	0.223	0.255	1.853	0.235	0.186	1.765	0.102	1.258	1.620	0.059	1.350	1.442	0.011	1.263	1.452	0.284	0.544	1.656	0.237	0.603	1.617
